<?xml version="1.0" encoding="UTF-8"?><svg id="_イヤー_2" xmlns="http://www.w3.org/2000/svg" viewBox="0 0 40 40"><defs><style>.cls-1{fill:#fff;}</style></defs><g id="_イヤー_1-2"><path class="cls-1" d="M20,0C8.95,0,0,8.95,0,20s8.95,20,20,20,20-8.95,20-20S31.05,0,20,0Zm10.67,15.42c0,.22,.01,.44,.01,.66,0,6.73-5.12,14.48-14.48,14.48-2.88,0-5.55-.84-7.8-2.29,.4,.05,.8,.07,1.21,.07,2.39,0,4.58-.81,6.32-2.18-2.23-.04-4.11-1.51-4.76-3.54,.31,.06,.63,.09,.96,.09,.46,0,.91-.06,1.34-.18-2.33-.47-4.08-2.53-4.08-4.99v-.06c.69,.38,1.47,.61,2.31,.64-1.37-.91-2.26-2.47-2.26-4.24,0-.93,.25-1.81,.69-2.56,2.51,3.08,6.26,5.11,10.49,5.32-.09-.37-.13-.76-.13-1.16,0-2.81,2.28-5.09,5.09-5.09,1.46,0,2.79,.62,3.72,1.61,1.16-.23,2.25-.65,3.23-1.24-.38,1.19-1.19,2.19-2.24,2.82,1.03-.12,2.01-.4,2.92-.8-.68,1.02-1.55,1.92-2.54,2.64Z"/></g></svg>