<?xml version="1.0" encoding="UTF-8"?><svg id="_イヤー_2" xmlns="http://www.w3.org/2000/svg" viewBox="0 0 40 40"><defs><style>.cls-1{fill:#fff;}</style></defs><g id="_イヤー_1-2"><g><path class="cls-1" d="M20,15.74c-2.35,0-4.26,1.91-4.26,4.26s1.91,4.26,4.26,4.26,4.26-1.91,4.26-4.26-1.91-4.26-4.26-4.26Z"/><path class="cls-1" d="M20,0C8.95,0,0,8.95,0,20s8.95,20,20,20,20-8.95,20-20S31.05,0,20,0Zm11.08,28.52c0,1.41-1.14,2.56-2.56,2.56H11.48c-1.41,0-2.56-1.15-2.56-2.56V11.48c0-1.41,1.14-2.56,2.56-2.56H28.52c1.41,0,2.56,1.14,2.56,2.56V28.52Z"/><path class="cls-1" d="M27.67,17.84h-1.24c.05,.15,.12,.3,.16,.46h0c.07,.26,.12,.52,.16,.79,0,.02,0,.05,.01,.07,.04,.28,.06,.56,.06,.84h0c0,.29-.02,.57-.06,.84,0,.03,0,.05-.01,.08-.04,.26-.09,.53-.15,.78-.76,2.94-3.42,5.12-6.6,5.12s-5.84-2.17-6.6-5.11h0c-.07-.26-.12-.53-.16-.8,0-.02,0-.04,0-.06-.04-.28-.06-.56-.06-.85h0c0-.29,.02-.57,.06-.84,0-.02,0-.05,.01-.07,.04-.27,.09-.53,.16-.79h0c.76-2.94,3.42-5.11,6.6-5.11,.76,0,1.48,.13,2.16,.36v-1.21c0-.3,.06-.58,.14-.85H12.33c-.47,0-.85,.38-.85,.85v5.97h0v9.38c0,.47,.38,.85,.85,.85h15.34c.47,0,.85-.38,.85-.85v-5.97h0v-4.01c-.27,.08-.55,.14-.85,.14Z"/><path class="cls-1" d="M25.12,11.48h2.56c.47,0,.85,.38,.85,.85v2.56c0,.47-.38,.85-.85,.85h-2.56c-.47,0-.85-.38-.85-.85v-2.56c0-.47,.38-.85,.85-.85Z"/></g></g></svg>